<svg aria-hidden="true" style="position: absolute; width: 0; height: 0; overflow: hidden;" version="1.1" xmlns="http://www.w3.org/2000/svg" xmlns:xlink="http://www.w3.org/1999/xlink">
<defs>
<symbol id="icon-logo" viewBox="0 0 32 32">
<path d="M31.922 29.909l-1.358-4.792c-0.268-0.944-0.219-1.954 0.166-2.857 0.891-2.091 1.348-4.408 1.261-6.841-0.302-8.45-7.248-15.265-15.701-15.416-9.066-0.161-16.448 7.221-16.287 16.287 0.151 8.453 6.966 15.399 15.413 15.701 2.127 0.075 4.164-0.265 6.041-0.947 1.494-0.543 3.118-0.635 4.646-0.2l3.802 1.081c1.229 0.35 2.366-0.786 2.018-2.015zM8.852 16c0-3.948 3.2-7.148 7.148-7.148s7.148 3.2 7.148 7.148c0 3.948-3.2 7.148-7.148 7.148s-7.148-3.2-7.148-7.148z"></path>
<path d="M30.313 23.216c0 0-0.056-0.178-0.166-0.494-0.852-2.414-4.994-12.868-13.184-13.802 3.493 0.47 6.184 3.461 6.184 7.080 0 3.948-3.2 7.148-7.148 7.148v8.849c1.915 0 3.753-0.333 5.457-0.952 1.494-0.543 3.118-0.635 4.646-0.2l3.802 1.081c1.229 0.348 2.366-0.786 2.018-2.018l-1.358-4.792c-0.161-0.562-0.204-1.151-0.134-1.723l-0.117-0.178z"></path>
</symbol>

<symbol id="icon-star-empty" viewBox="0 0 32 32">
<path d="M32 12.408l-11.056-1.607-4.944-10.018-4.944 10.018-11.056 1.607 8 7.798-1.889 11.011 9.889-5.199 9.889 5.199-1.889-11.011 8-7.798zM16 23.547l-6.983 3.671 1.334-7.776-5.65-5.507 7.808-1.134 3.492-7.075 3.492 7.075 7.807 1.134-5.65 5.507 1.334 7.776-6.983-3.671z"></path>
</symbol>

<symbol id="icon-close-black-18dp-2-1-1" viewBox="0 0 32 32">
<path d="M26.684 7.308l-1.971-1.971-7.813 7.813-7.813-7.813-1.971 1.971 7.813 7.813-7.813 7.813 1.971 1.971 7.813-7.813 7.813 7.813 1.971-1.971-7.813-7.813 7.813-7.813z"></path>
</symbol>

</defs>
</svg>
